<mxfile>
    <diagram id="tnHq8Ioqzv3WrPiGQhEZ" name="ページ1">
        <mxGraphModel dx="1204" dy="790" grid="1" gridSize="10" guides="1" tooltips="1" connect="1" arrows="1" fold="1" page="1" pageScale="1" pageWidth="827" pageHeight="1169" background="#ffffff" math="0" shadow="0">
            <root>
                <mxCell id="0"/>
                <mxCell id="1" parent="0"/>
                <mxCell id="14" style="edgeStyle=orthogonalEdgeStyle;rounded=0;orthogonalLoop=1;jettySize=auto;html=1;exitX=0.75;exitY=0;exitDx=0;exitDy=0;entryX=0.5;entryY=1;entryDx=0;entryDy=0;strokeColor=#303030;" parent="1" source="2" target="13" edge="1">
                    <mxGeometry relative="1" as="geometry">
                        <Array as="points">
                            <mxPoint x="405" y="467.5"/>
                            <mxPoint x="405" y="392.5"/>
                        </Array>
                    </mxGeometry>
                </mxCell>
                <mxCell id="18" style="edgeStyle=orthogonalEdgeStyle;rounded=0;orthogonalLoop=1;jettySize=auto;html=1;exitX=0.75;exitY=0;exitDx=0;exitDy=0;entryX=0;entryY=0.5;entryDx=0;entryDy=0;strokeColor=#303030;" parent="1" target="15" edge="1">
                    <mxGeometry relative="1" as="geometry">
                        <mxPoint x="440" y="497.5" as="sourcePoint"/>
                        <Array as="points">
                            <mxPoint x="440" y="448"/>
                        </Array>
                    </mxGeometry>
                </mxCell>
                <mxCell id="26" style="edgeStyle=orthogonalEdgeStyle;rounded=0;orthogonalLoop=1;jettySize=auto;html=1;dashed=1;strokeColor=#303030;" parent="1" edge="1">
                    <mxGeometry relative="1" as="geometry">
                        <mxPoint x="720" y="347.5" as="targetPoint"/>
                        <Array as="points">
                            <mxPoint x="720" y="530"/>
                        </Array>
                        <mxPoint x="450" y="530" as="sourcePoint"/>
                    </mxGeometry>
                </mxCell>
                <mxCell id="2" value="Raspberry Pi 4" style="rounded=1;whiteSpace=wrap;html=1;strokeColor=#303030;" parent="1" vertex="1">
                    <mxGeometry x="230" y="467.5" width="210" height="80" as="geometry"/>
                </mxCell>
                <mxCell id="5" value="ラジコン" style="rounded=0;whiteSpace=wrap;html=1;strokeColor=#303030;" parent="1" vertex="1">
                    <mxGeometry x="210" y="547.5" width="250" height="60" as="geometry"/>
                </mxCell>
                <mxCell id="6" value="" style="ellipse;whiteSpace=wrap;html=1;aspect=fixed;strokeColor=#303030;" parent="1" vertex="1">
                    <mxGeometry x="240" y="607.5" width="40" height="40" as="geometry"/>
                </mxCell>
                <mxCell id="7" value="" style="ellipse;whiteSpace=wrap;html=1;aspect=fixed;strokeColor=#303030;" parent="1" vertex="1">
                    <mxGeometry x="390" y="607.5" width="40" height="40" as="geometry"/>
                </mxCell>
                <mxCell id="10" style="edgeStyle=orthogonalEdgeStyle;rounded=0;orthogonalLoop=1;jettySize=auto;html=1;exitX=1;exitY=0.5;exitDx=0;exitDy=0;entryX=0.129;entryY=-0.025;entryDx=0;entryDy=0;entryPerimeter=0;strokeColor=#303030;" parent="1" source="8" target="2" edge="1">
                    <mxGeometry relative="1" as="geometry">
                        <Array as="points">
                            <mxPoint x="257" y="398"/>
                        </Array>
                    </mxGeometry>
                </mxCell>
                <mxCell id="8" value="距離センサー" style="rounded=1;whiteSpace=wrap;html=1;strokeColor=#303030;" parent="1" vertex="1">
                    <mxGeometry x="110" y="367.5" width="120" height="60" as="geometry"/>
                </mxCell>
                <mxCell id="12" style="edgeStyle=orthogonalEdgeStyle;rounded=0;orthogonalLoop=1;jettySize=auto;html=1;strokeColor=#303030;" parent="1" source="11" edge="1">
                    <mxGeometry relative="1" as="geometry">
                        <mxPoint x="300" y="467.5" as="targetPoint"/>
                        <Array as="points">
                            <mxPoint x="300" y="370"/>
                            <mxPoint x="300" y="370"/>
                        </Array>
                    </mxGeometry>
                </mxCell>
                <mxCell id="11" value="加速度センサー" style="rounded=1;whiteSpace=wrap;html=1;strokeColor=#303030;" parent="1" vertex="1">
                    <mxGeometry x="210" y="302.5" width="120" height="40" as="geometry"/>
                </mxCell>
                <mxCell id="13" value="情報表示ディスプレイ" style="rounded=1;whiteSpace=wrap;html=1;strokeColor=#303030;" parent="1" vertex="1">
                    <mxGeometry x="540" y="332.5" width="130" height="40" as="geometry"/>
                </mxCell>
                <mxCell id="19" style="edgeStyle=orthogonalEdgeStyle;rounded=0;orthogonalLoop=1;jettySize=auto;html=1;exitX=0.75;exitY=1;exitDx=0;exitDy=0;strokeColor=#303030;" parent="1" source="15" edge="1">
                    <mxGeometry relative="1" as="geometry">
                        <Array as="points">
                            <mxPoint x="598" y="510"/>
                            <mxPoint x="450" y="510"/>
                        </Array>
                        <mxPoint x="450" y="510" as="targetPoint"/>
                    </mxGeometry>
                </mxCell>
                <mxCell id="15" value="USBフラッシュメモリ" style="rounded=1;whiteSpace=wrap;html=1;strokeColor=#303030;" parent="1" vertex="1">
                    <mxGeometry x="492.5" y="417.5" width="140" height="60" as="geometry"/>
                </mxCell>
                <mxCell id="20" value="対象物との距離データ" style="text;html=1;fillColor=none;align=center;verticalAlign=middle;whiteSpace=wrap;rounded=0;fontColor=#080808;" parent="1" vertex="1">
                    <mxGeometry x="120" y="427.5" width="130" height="20" as="geometry"/>
                </mxCell>
                <mxCell id="21" value="加速度データ" style="text;html=1;fillColor=none;align=center;verticalAlign=middle;whiteSpace=wrap;rounded=0;fontColor=#080808;" parent="1" vertex="1">
                    <mxGeometry x="200" y="342.5" width="110" height="20" as="geometry"/>
                </mxCell>
                <mxCell id="22" value="ファイルデータ" style="text;html=1;fillColor=none;align=center;verticalAlign=middle;whiteSpace=wrap;rounded=0;fontColor=#080808;" parent="1" vertex="1">
                    <mxGeometry x="450" y="477.5" width="90" height="20" as="geometry"/>
                </mxCell>
                <mxCell id="23" value="接続中のSSID, IPアドレス" style="text;html=1;fillColor=none;align=center;verticalAlign=middle;whiteSpace=wrap;rounded=0;fontColor=#080808;" parent="1" vertex="1">
                    <mxGeometry x="400" y="372.5" width="150" height="20" as="geometry"/>
                </mxCell>
                <mxCell id="31" style="edgeStyle=orthogonalEdgeStyle;rounded=0;orthogonalLoop=1;jettySize=auto;html=1;strokeColor=#303030;" parent="1" edge="1" source="38">
                    <mxGeometry relative="1" as="geometry">
                        <mxPoint x="565.85" y="135" as="sourcePoint"/>
                        <mxPoint x="160" y="238.5" as="targetPoint"/>
                        <Array as="points">
                            <mxPoint x="270" y="238.5"/>
                            <mxPoint x="270" y="238.5"/>
                        </Array>
                    </mxGeometry>
                </mxCell>
                <mxCell id="27" value="&lt;span style=&quot;font-weight: normal&quot;&gt;データアップロード(無線通信)&lt;/span&gt;" style="text;html=1;fillColor=none;align=left;verticalAlign=middle;whiteSpace=wrap;rounded=0;fontStyle=1;fontColor=#080808;" parent="1" vertex="1">
                    <mxGeometry x="720" y="397.5" width="170" height="30" as="geometry"/>
                </mxCell>
                <mxCell id="29" value="- IPアドレス&#10;- SSID&#10;- 温湿度情報&#10;- PUI数&#10;- 送信時刻" style="text;fillColor=none;align=left;verticalAlign=top;spacingLeft=4;spacingRight=4;overflow=hidden;rotatable=0;points=[[0,0.5],[1,0.5]];portConstraint=eastwest;fontColor=#080808;" parent="1" vertex="1">
                    <mxGeometry x="720" y="417.5" width="140" height="90" as="geometry"/>
                </mxCell>
                <mxCell id="30" value="" style="shape=image;verticalLabelPosition=bottom;labelBackgroundColor=#ffffff;verticalAlign=top;aspect=fixed;imageAspect=0;image=https://1.bp.blogspot.com/-qJOC3lNBx-o/X9GYKL3X61I/AAAAAAABctw/gcQUKI_5cIoM1HEm794M2SxTP31HAcTPgCNcBGAsYHQ/s400/idol_koisuru_boy_man.png;strokeColor=#303030;" parent="1" vertex="1">
                    <mxGeometry x="16.15" y="162.5" width="153.85" height="170" as="geometry"/>
                </mxCell>
                <mxCell id="39" style="edgeStyle=orthogonalEdgeStyle;rounded=0;orthogonalLoop=1;jettySize=auto;html=1;strokeColor=#303030;" parent="1" target="2" edge="1">
                    <mxGeometry relative="1" as="geometry">
                        <Array as="points">
                            <mxPoint x="79" y="507.5"/>
                        </Array>
                        <mxPoint x="79" y="367.5" as="sourcePoint"/>
                        <mxPoint x="210" y="521.5" as="targetPoint"/>
                    </mxGeometry>
                </mxCell>
                <mxCell id="32" value="ユーザー" style="text;html=1;fillColor=none;align=center;verticalAlign=middle;whiteSpace=wrap;rounded=0;fontColor=#080808;" parent="1" vertex="1">
                    <mxGeometry x="59.99999999999999" y="327.5" width="63.08" height="20" as="geometry"/>
                </mxCell>
                <mxCell id="35" style="edgeStyle=orthogonalEdgeStyle;rounded=0;orthogonalLoop=1;jettySize=auto;html=1;strokeColor=#303030;entryX=0.567;entryY=0.006;entryDx=0;entryDy=0;entryPerimeter=0;" parent="1" source="34" target="2" edge="1">
                    <mxGeometry relative="1" as="geometry">
                        <mxPoint x="350" y="460" as="targetPoint"/>
                        <Array as="points">
                            <mxPoint x="349" y="313"/>
                        </Array>
                    </mxGeometry>
                </mxCell>
                <mxCell id="34" value="温湿度センサー" style="rounded=1;whiteSpace=wrap;html=1;align=center;strokeColor=#303030;" parent="1" vertex="1">
                    <mxGeometry x="370" y="282.5" width="120" height="60" as="geometry"/>
                </mxCell>
                <mxCell id="36" value="温湿度情報" style="text;html=1;fillColor=none;align=center;verticalAlign=middle;whiteSpace=wrap;rounded=0;fontColor=#080808;" parent="1" vertex="1">
                    <mxGeometry x="350" y="342.5" width="70" height="20" as="geometry"/>
                </mxCell>
                <mxCell id="37" value="Webページ経由で情報を閲覧&lt;br&gt;- ラズパイのIPアドレス&lt;br&gt;- SSID&lt;br&gt;- 温湿度情報&lt;br&gt;- PUI数(オドメーター)&lt;br&gt;- 送信時刻(最終更新日時)" style="text;html=1;fillColor=none;align=left;verticalAlign=middle;whiteSpace=wrap;rounded=0;fontColor=#080808;" parent="1" vertex="1">
                    <mxGeometry x="286.85" y="120" width="190" height="100" as="geometry"/>
                </mxCell>
                <mxCell id="38" value="サーバー" style="ellipse;shape=cloud;whiteSpace=wrap;html=1;align=center;strokeColor=#303030;" parent="1" vertex="1">
                    <mxGeometry x="610" y="142.5" width="300" height="190" as="geometry"/>
                </mxCell>
                <mxCell id="40" value="ファイルアップロード" style="text;html=1;fillColor=none;align=center;verticalAlign=middle;whiteSpace=wrap;rounded=0;fontColor=#080808;" parent="1" vertex="1">
                    <mxGeometry x="100" y="487.5" width="130" height="20" as="geometry"/>
                </mxCell>
                <mxCell id="41" style="edgeStyle=orthogonalEdgeStyle;rounded=0;orthogonalLoop=1;jettySize=auto;html=1;strokeColor=#303030;" parent="1" edge="1">
                    <mxGeometry relative="1" as="geometry">
                        <mxPoint x="60" y="370" as="sourcePoint"/>
                        <mxPoint x="210" y="580" as="targetPoint"/>
                        <Array as="points">
                            <mxPoint x="60" y="580"/>
                            <mxPoint x="210" y="580"/>
                        </Array>
                    </mxGeometry>
                </mxCell>
                <mxCell id="42" value="ラジコン操作" style="text;html=1;fillColor=none;align=center;verticalAlign=middle;whiteSpace=wrap;rounded=0;fontColor=#080808;" parent="1" vertex="1">
                    <mxGeometry x="80" y="557.5" width="130" height="20" as="geometry"/>
                </mxCell>
            </root>
        </mxGraphModel>
    </diagram>
</mxfile>